<svg xmlns="http://www.w3.org/2000/svg" xmlns:xlink="http://www.w3.org/1999/xlink" width="500" zoomAndPan="magnify" viewBox="0 0 375 374.999991" height="500" preserveAspectRatio="xMidYMid meet" version="1.0"><defs><clipPath id="3e8b1de373"><path d="M 9.15625 29.664062 L 366 29.664062 L 366 345.414062 L 9.15625 345.414062 Z M 9.15625 29.664062 " clip-rule="nonzero"/></clipPath><clipPath id="e719c53a35"><path d="M 164 0.761719 L 180 0.761719 L 180 10 L 164 10 Z M 164 0.761719 " clip-rule="nonzero"/></clipPath><clipPath id="0f3bb14158"><path d="M 345 109 L 356.839844 109 L 356.839844 119 L 345 119 Z M 345 109 " clip-rule="nonzero"/></clipPath><clipPath id="f75c3d0be8"><path d="M 52 26 L 329 26 L 329 316.414062 L 52 316.414062 Z M 52 26 " clip-rule="nonzero"/></clipPath><clipPath id="d3274ed99d"><path d="M 0.15625 47 L 65 47 L 65 146 L 0.15625 146 Z M 0.15625 47 " clip-rule="nonzero"/></clipPath><clipPath id="704a118316"><rect x="0" width="357" y="0" height="317"/></clipPath><clipPath id="200162d6d3"><path d="M 115 109 L 304 109 L 304 219 L 115 219 Z M 115 109 " clip-rule="nonzero"/></clipPath><clipPath id="1b822e5f85"><path d="M 119.90625 105.4375 L 308.292969 114.15625 L 303.460938 218.542969 L 115.078125 209.824219 Z M 119.90625 105.4375 " clip-rule="nonzero"/></clipPath><clipPath id="cdd3daba12"><path d="M 182.4375 114.613281 C 192.238281 111.273438 203.363281 109.300781 214.136719 109.796875 C 224.914062 110.296875 235.183594 112.90625 244.5625 117.132812 C 244.761719 117.261719 244.964844 117.269531 245.164062 117.398438 C 280.34375 134.199219 304.925781 175.40625 303.4375 218.542969 L 115.078125 209.824219 C 117.589844 166.503906 145.464844 127.722656 182.4375 114.613281 Z M 182.4375 114.613281 " clip-rule="nonzero"/></clipPath><clipPath id="4f78ea4198"><path d="M 0 0.199219 L 189 0.199219 L 189 109.640625 L 0 109.640625 Z M 0 0.199219 " clip-rule="nonzero"/></clipPath><clipPath id="c33c5632f5"><path d="M 4.90625 -3.5625 L 193.292969 5.15625 L 188.460938 109.542969 L 0.078125 100.824219 Z M 4.90625 -3.5625 " clip-rule="nonzero"/></clipPath><clipPath id="f9a4a2fc7a"><path d="M 67.4375 5.613281 C 77.238281 2.273438 88.363281 0.300781 99.136719 0.796875 C 109.914062 1.296875 120.183594 3.90625 129.5625 8.132812 C 129.761719 8.261719 129.964844 8.269531 130.164062 8.398438 C 165.34375 25.199219 189.925781 66.40625 188.4375 109.542969 L 0.078125 100.824219 C 2.589844 57.503906 30.464844 18.722656 67.4375 5.613281 Z M 67.4375 5.613281 " clip-rule="nonzero"/></clipPath><clipPath id="af4a558af8"><rect x="0" width="189" y="0" height="110"/></clipPath><clipPath id="8e12fbf4a8"><path d="M 177.945312 169.167969 L 211.671875 169.167969 L 211.671875 212.378906 L 177.945312 212.378906 Z M 177.945312 169.167969 " clip-rule="nonzero"/></clipPath><clipPath id="19da7c3e14"><path d="M 194.808594 169.167969 C 185.496094 169.167969 177.945312 178.8125 177.945312 190.710938 C 177.945312 202.613281 185.496094 212.257812 194.808594 212.257812 C 204.121094 212.257812 211.671875 202.613281 211.671875 190.710938 C 211.671875 178.8125 204.121094 169.167969 194.808594 169.167969 Z M 194.808594 169.167969 " clip-rule="nonzero"/></clipPath><clipPath id="b6b14ae44b"><path d="M 0.945312 0.167969 L 34.671875 0.167969 L 34.671875 43.378906 L 0.945312 43.378906 Z M 0.945312 0.167969 " clip-rule="nonzero"/></clipPath><clipPath id="8c830ec245"><path d="M 17.808594 0.167969 C 8.496094 0.167969 0.945312 9.8125 0.945312 21.710938 C 0.945312 33.613281 8.496094 43.257812 17.808594 43.257812 C 27.121094 43.257812 34.671875 33.613281 34.671875 21.710938 C 34.671875 9.8125 27.121094 0.167969 17.808594 0.167969 Z M 17.808594 0.167969 " clip-rule="nonzero"/></clipPath><clipPath id="472c961e7b"><rect x="0" width="35" y="0" height="44"/></clipPath><clipPath id="174ed59075"><path d="M 155 164 L 244 164 L 244 217 L 155 217 Z M 155 164 " clip-rule="nonzero"/></clipPath><clipPath id="7ac547f2b0"><path d="M 112.644531 109.570312 L 297.601562 119.957031 L 292.050781 218.800781 L 107.09375 208.414062 Z M 112.644531 109.570312 " clip-rule="nonzero"/></clipPath><clipPath id="b1a65de788"><path d="M 112.644531 109.570312 L 297.601562 119.957031 L 292.050781 218.800781 L 107.09375 208.414062 Z M 112.644531 109.570312 " clip-rule="nonzero"/></clipPath><clipPath id="92b4f9049a"><path d="M 112.644531 109.570312 L 297.601562 119.957031 L 292.050781 218.800781 L 107.09375 208.414062 Z M 112.644531 109.570312 " clip-rule="nonzero"/></clipPath><clipPath id="95d01a48bc"><path d="M 158.128906 161.40625 L 246.648438 166.375 L 243.855469 216.070312 L 155.335938 211.101562 Z M 158.128906 161.40625 " clip-rule="nonzero"/></clipPath><clipPath id="8f5412fb86"><path d="M 200 114 L 206 114 L 206 160 L 200 160 Z M 200 114 " clip-rule="nonzero"/></clipPath><clipPath id="67889bb7d7"><path d="M 112.644531 109.570312 L 297.601562 119.957031 L 292.050781 218.800781 L 107.09375 208.414062 Z M 112.644531 109.570312 " clip-rule="nonzero"/></clipPath><clipPath id="b7d33c0079"><path d="M 112.644531 109.570312 L 297.601562 119.957031 L 292.050781 218.800781 L 107.09375 208.414062 Z M 112.644531 109.570312 " clip-rule="nonzero"/></clipPath><clipPath id="d7eeefd1dc"><path d="M 112.644531 109.570312 L 297.601562 119.957031 L 292.050781 218.800781 L 107.09375 208.414062 Z M 112.644531 109.570312 " clip-rule="nonzero"/></clipPath><clipPath id="84dc4b161e"><path d="M 214 119 L 230 119 L 230 162 L 214 162 Z M 214 119 " clip-rule="nonzero"/></clipPath><clipPath id="914f278fb4"><path d="M 112.644531 109.570312 L 297.601562 119.957031 L 292.050781 218.800781 L 107.09375 208.414062 Z M 112.644531 109.570312 " clip-rule="nonzero"/></clipPath><clipPath id="20b4380773"><path d="M 112.644531 109.570312 L 297.601562 119.957031 L 292.050781 218.800781 L 107.09375 208.414062 Z M 112.644531 109.570312 " clip-rule="nonzero"/></clipPath><clipPath id="6f5b88b560"><path d="M 112.644531 109.570312 L 297.601562 119.957031 L 292.050781 218.800781 L 107.09375 208.414062 Z M 112.644531 109.570312 " clip-rule="nonzero"/></clipPath><clipPath id="90333c97b7"><path d="M 225 129 L 252 129 L 252 168 L 225 168 Z M 225 129 " clip-rule="nonzero"/></clipPath><clipPath id="1f3e132905"><path d="M 112.644531 109.570312 L 297.601562 119.957031 L 292.050781 218.800781 L 107.09375 208.414062 Z M 112.644531 109.570312 " clip-rule="nonzero"/></clipPath><clipPath id="505589c395"><path d="M 112.644531 109.570312 L 297.601562 119.957031 L 292.050781 218.800781 L 107.09375 208.414062 Z M 112.644531 109.570312 " clip-rule="nonzero"/></clipPath><clipPath id="588e7686cf"><path d="M 112.644531 109.570312 L 297.601562 119.957031 L 292.050781 218.800781 L 107.09375 208.414062 Z M 112.644531 109.570312 " clip-rule="nonzero"/></clipPath><clipPath id="a21aca637e"><path d="M 235 145 L 270 145 L 270 176 L 235 176 Z M 235 145 " clip-rule="nonzero"/></clipPath><clipPath id="9462a590a7"><path d="M 112.644531 109.570312 L 297.601562 119.957031 L 292.050781 218.800781 L 107.09375 208.414062 Z M 112.644531 109.570312 " clip-rule="nonzero"/></clipPath><clipPath id="7775dd32b5"><path d="M 112.644531 109.570312 L 297.601562 119.957031 L 292.050781 218.800781 L 107.09375 208.414062 Z M 112.644531 109.570312 " clip-rule="nonzero"/></clipPath><clipPath id="91d0837ae6"><path d="M 112.644531 109.570312 L 297.601562 119.957031 L 292.050781 218.800781 L 107.09375 208.414062 Z M 112.644531 109.570312 " clip-rule="nonzero"/></clipPath><clipPath id="1daabe09e4"><path d="M 242 165 L 283 165 L 283 187 L 242 187 Z M 242 165 " clip-rule="nonzero"/></clipPath><clipPath id="210b5f152e"><path d="M 112.644531 109.570312 L 297.601562 119.957031 L 292.050781 218.800781 L 107.09375 208.414062 Z M 112.644531 109.570312 " clip-rule="nonzero"/></clipPath><clipPath id="3d34cd72b5"><path d="M 112.644531 109.570312 L 297.601562 119.957031 L 292.050781 218.800781 L 107.09375 208.414062 Z M 112.644531 109.570312 " clip-rule="nonzero"/></clipPath><clipPath id="fb96f09aef"><path d="M 112.644531 109.570312 L 297.601562 119.957031 L 292.050781 218.800781 L 107.09375 208.414062 Z M 112.644531 109.570312 " clip-rule="nonzero"/></clipPath><clipPath id="f776ccb390"><path d="M 247 188 L 291 188 L 291 199 L 247 199 Z M 247 188 " clip-rule="nonzero"/></clipPath><clipPath id="7554de1b1e"><path d="M 112.644531 109.570312 L 297.601562 119.957031 L 292.050781 218.800781 L 107.09375 208.414062 Z M 112.644531 109.570312 " clip-rule="nonzero"/></clipPath><clipPath id="2609af0637"><path d="M 112.644531 109.570312 L 297.601562 119.957031 L 292.050781 218.800781 L 107.09375 208.414062 Z M 112.644531 109.570312 " clip-rule="nonzero"/></clipPath><clipPath id="070b0e2eae"><path d="M 112.644531 109.570312 L 297.601562 119.957031 L 292.050781 218.800781 L 107.09375 208.414062 Z M 112.644531 109.570312 " clip-rule="nonzero"/></clipPath><clipPath id="7945f0a735"><path d="M 248 208 L 293 208 L 293 214 L 248 214 Z M 248 208 " clip-rule="nonzero"/></clipPath><clipPath id="2076bee708"><path d="M 112.644531 109.570312 L 297.601562 119.957031 L 292.050781 218.800781 L 107.09375 208.414062 Z M 112.644531 109.570312 " clip-rule="nonzero"/></clipPath><clipPath id="af3fe7c8c2"><path d="M 112.644531 109.570312 L 297.601562 119.957031 L 292.050781 218.800781 L 107.09375 208.414062 Z M 112.644531 109.570312 " clip-rule="nonzero"/></clipPath><clipPath id="0246af70a4"><path d="M 112.644531 109.570312 L 297.601562 119.957031 L 292.050781 218.800781 L 107.09375 208.414062 Z M 112.644531 109.570312 " clip-rule="nonzero"/></clipPath><clipPath id="9e8f7b93ef"><path d="M 247.953125 207.972656 L 292.382812 210.46875 L 292.101562 215.472656 L 247.671875 212.976562 Z M 247.953125 207.972656 " clip-rule="nonzero"/></clipPath><clipPath id="321a74986a"><path d="M 107 201 L 152 201 L 152 207 L 107 207 Z M 107 201 " clip-rule="nonzero"/></clipPath><clipPath id="e4ce2c9fe9"><path d="M 112.644531 109.570312 L 297.601562 119.957031 L 292.050781 218.800781 L 107.09375 208.414062 Z M 112.644531 109.570312 " clip-rule="nonzero"/></clipPath><clipPath id="9ab2962717"><path d="M 112.644531 109.570312 L 297.601562 119.957031 L 292.050781 218.800781 L 107.09375 208.414062 Z M 112.644531 109.570312 " clip-rule="nonzero"/></clipPath><clipPath id="b5afc4b40e"><path d="M 112.644531 109.570312 L 297.601562 119.957031 L 292.050781 218.800781 L 107.09375 208.414062 Z M 112.644531 109.570312 " clip-rule="nonzero"/></clipPath><clipPath id="6c73bb2c18"><path d="M 111 178 L 155 178 L 155 194 L 111 194 Z M 111 178 " clip-rule="nonzero"/></clipPath><clipPath id="2b67ed15dc"><path d="M 112.644531 109.570312 L 297.601562 119.957031 L 292.050781 218.800781 L 107.09375 208.414062 Z M 112.644531 109.570312 " clip-rule="nonzero"/></clipPath><clipPath id="000cb09cfc"><path d="M 112.644531 109.570312 L 297.601562 119.957031 L 292.050781 218.800781 L 107.09375 208.414062 Z M 112.644531 109.570312 " clip-rule="nonzero"/></clipPath><clipPath id="37a86e6986"><path d="M 112.644531 109.570312 L 297.601562 119.957031 L 292.050781 218.800781 L 107.09375 208.414062 Z M 112.644531 109.570312 " clip-rule="nonzero"/></clipPath><clipPath id="45eab3570d"><path d="M 122 156 L 160 156 L 160 182 L 122 182 Z M 122 156 " clip-rule="nonzero"/></clipPath><clipPath id="97284c934d"><path d="M 112.644531 109.570312 L 297.601562 119.957031 L 292.050781 218.800781 L 107.09375 208.414062 Z M 112.644531 109.570312 " clip-rule="nonzero"/></clipPath><clipPath id="ec14c0d977"><path d="M 112.644531 109.570312 L 297.601562 119.957031 L 292.050781 218.800781 L 107.09375 208.414062 Z M 112.644531 109.570312 " clip-rule="nonzero"/></clipPath><clipPath id="a21ef22c5c"><path d="M 112.644531 109.570312 L 297.601562 119.957031 L 292.050781 218.800781 L 107.09375 208.414062 Z M 112.644531 109.570312 " clip-rule="nonzero"/></clipPath><clipPath id="b9e4275083"><path d="M 137 137 L 169 137 L 169 172 L 137 172 Z M 137 137 " clip-rule="nonzero"/></clipPath><clipPath id="d302697f10"><path d="M 112.644531 109.570312 L 297.601562 119.957031 L 292.050781 218.800781 L 107.09375 208.414062 Z M 112.644531 109.570312 " clip-rule="nonzero"/></clipPath><clipPath id="0a17e07f6b"><path d="M 112.644531 109.570312 L 297.601562 119.957031 L 292.050781 218.800781 L 107.09375 208.414062 Z M 112.644531 109.570312 " clip-rule="nonzero"/></clipPath><clipPath id="07af6770e5"><path d="M 112.644531 109.570312 L 297.601562 119.957031 L 292.050781 218.800781 L 107.09375 208.414062 Z M 112.644531 109.570312 " clip-rule="nonzero"/></clipPath><clipPath id="1f841566cc"><path d="M 157 124 L 179 124 L 179 165 L 157 165 Z M 157 124 " clip-rule="nonzero"/></clipPath><clipPath id="85a64de59a"><path d="M 112.644531 109.570312 L 297.601562 119.957031 L 292.050781 218.800781 L 107.09375 208.414062 Z M 112.644531 109.570312 " clip-rule="nonzero"/></clipPath><clipPath id="72ffd91fa6"><path d="M 112.644531 109.570312 L 297.601562 119.957031 L 292.050781 218.800781 L 107.09375 208.414062 Z M 112.644531 109.570312 " clip-rule="nonzero"/></clipPath><clipPath id="fef0a80ca4"><path d="M 112.644531 109.570312 L 297.601562 119.957031 L 292.050781 218.800781 L 107.09375 208.414062 Z M 112.644531 109.570312 " clip-rule="nonzero"/></clipPath><clipPath id="6b7c478ee9"><path d="M 180 116 L 191 116 L 191 161 L 180 161 Z M 180 116 " clip-rule="nonzero"/></clipPath><clipPath id="7032e95c2d"><path d="M 112.644531 109.570312 L 297.601562 119.957031 L 292.050781 218.800781 L 107.09375 208.414062 Z M 112.644531 109.570312 " clip-rule="nonzero"/></clipPath><clipPath id="2150e1be4d"><path d="M 112.644531 109.570312 L 297.601562 119.957031 L 292.050781 218.800781 L 107.09375 208.414062 Z M 112.644531 109.570312 " clip-rule="nonzero"/></clipPath><clipPath id="3428169ab4"><path d="M 112.644531 109.570312 L 297.601562 119.957031 L 292.050781 218.800781 L 107.09375 208.414062 Z M 112.644531 109.570312 " clip-rule="nonzero"/></clipPath></defs><rect x="-37.5" width="450" fill="#ffffff" y="-37.499999" height="449.999989" fill-opacity="1"/><rect x="-37.5" width="450" fill="#ffffff" y="-37.499999" height="449.999989" fill-opacity="1"/><g clip-path="url(#3e8b1de373)"><g transform="matrix(1, 0, 0, 1, 9, 29)"><g clip-path="url(#704a118316)"><path fill="#006837" d="M 329.554688 202.9375 C 326.117188 217.496094 320.335938 231.246094 312.582031 243.609375 C 309.21875 241.707031 305.851562 239.804688 302.5625 238.195312 C 292.976562 233.296875 281.054688 227.882812 271.179688 223.785156 C 209.804688 198.988281 141.261719 191.820312 75.867188 202.207031 C 74.84375 197.964844 74.039062 193.648438 73.378906 189.257812 C 156.84375 162.851562 249.527344 167.605469 329.554688 202.9375 Z M 329.554688 202.9375 " fill-opacity="1" fill-rule="nonzero"/><path fill="#006837" d="M 77.769531 209.082031 C 97.300781 206.960938 116.976562 206.304688 136.65625 207.472656 C 139.945312 207.621094 144.554688 207.765625 147.773438 208.132812 C 154.355469 208.789062 163.429688 209.523438 169.863281 210.617188 C 191.664062 213.617188 213.609375 218.886719 234.457031 225.835938 C 238.335938 227.222656 246.382812 230.148438 250.039062 231.464844 C 253.183594 232.785156 262.109375 236.441406 265.328125 237.832031 C 271.253906 240.757812 279.519531 244.269531 285.222656 247.414062 C 291.222656 250.484375 297.074219 253.777344 302.925781 257.214844 C 292.464844 270.015625 279.519531 280.257812 265.179688 287.71875 C 211.488281 250.925781 148.433594 227.882812 83.402344 223.566406 C 81.058594 218.886719 79.230469 214.058594 77.769531 209.082031 Z M 77.769531 209.082031 " fill-opacity="1" fill-rule="nonzero"/><path fill="#006837" d="M 247.476562 295.253906 C 234.894531 299.496094 221.65625 301.691406 208.125 301.691406 C 207.976562 301.691406 207.902344 301.691406 207.757812 301.691406 C 171.035156 301.691406 136.800781 288.160156 111.34375 263.578125 C 101.617188 254.214844 93.640625 243.609375 87.425781 232.199219 C 144.847656 240.246094 200.222656 261.898438 247.476562 295.253906 Z M 247.476562 295.253906 " fill-opacity="1" fill-rule="nonzero"/><path fill="#63b32e" d="M 131.535156 77.191406 C 125.023438 77.410156 120.34375 74.996094 118.734375 70.535156 C 124.367188 65.269531 132.046875 61.902344 138.777344 62.121094 C 142.140625 62.195312 144.773438 63.148438 146.75 64.683594 C 148.722656 66.144531 149.894531 68.195312 150.40625 70.460938 C 144.847656 74.191406 138.042969 76.898438 131.535156 77.191406 Z M 131.535156 77.191406 " fill-opacity="1" fill-rule="nonzero"/><path fill="#63b32e" d="M 104.101562 35.789062 C 100.519531 42.589844 101.617188 48.003906 105.492188 50.710938 C 112.589844 46.394531 119.246094 40.542969 123.269531 34.253906 C 125.242188 31.035156 126.339844 28.179688 126.488281 25.546875 C 126.632812 22.988281 125.753906 20.792969 124 19.109375 C 115.292969 22.546875 107.6875 28.984375 104.101562 35.789062 Z M 104.101562 35.789062 " fill-opacity="1" fill-rule="nonzero"/><path fill="#63b32e" d="M 147.117188 72.144531 C 149.238281 72.070312 151.285156 71.925781 153.40625 71.925781 L 156.480469 71.925781 L 159.476562 72.070312 C 156.1875 70.535156 152.820312 69.292969 149.308594 68.121094 Z M 147.117188 72.144531 " fill-opacity="1" fill-rule="nonzero"/><path fill="#63b32e" d="M 125.242188 21.671875 C 127.292969 17.71875 129.484375 13.769531 131.972656 9.894531 C 129.707031 11.792969 127.511719 13.695312 125.460938 15.746094 C 123.339844 17.71875 121.367188 19.769531 119.390625 21.816406 C 121.367188 21.742188 123.269531 21.671875 125.242188 21.671875 Z M 125.242188 21.671875 " fill-opacity="1" fill-rule="nonzero"/><path fill="#63b32e" d="M 161.671875 58.757812 C 155.894531 57.367188 152.089844 54.148438 151.578125 49.6875 C 157.796875 46.175781 165.621094 44.933594 171.472656 46.90625 C 174.402344 47.859375 176.59375 49.394531 177.910156 51.296875 C 179.226562 53.199219 179.8125 55.320312 179.667969 57.515625 C 173.960938 59.488281 167.453125 60.148438 161.671875 58.757812 Z M 161.671875 58.757812 " fill-opacity="1" fill-rule="nonzero"/><path fill="#63b32e" d="M 146.457031 16.769531 C 141.335938 22.253906 141.191406 27.449219 144.1875 30.8125 C 151.796875 28.398438 159.332031 24.667969 164.746094 19.914062 C 167.453125 17.574219 169.207031 15.085938 170.011719 12.820312 C 170.816406 10.550781 170.667969 8.285156 169.5 6.382812 C 160.5 7.257812 151.503906 11.355469 146.457031 16.769531 Z M 146.457031 16.769531 " fill-opacity="1" fill-rule="nonzero"/><path fill="#63b32e" d="M 176.15625 57.808594 C 179.960938 58.757812 183.542969 59.78125 186.984375 61.097656 C 185.8125 59.929688 184.496094 58.832031 183.25 57.808594 C 181.933594 56.78125 180.617188 55.613281 179.226562 54.589844 Z M 176.15625 57.808594 " fill-opacity="1" fill-rule="nonzero"/><g clip-path="url(#e719c53a35)"><path fill="#63b32e" d="M 169.9375 9.671875 C 171.402344 8.136719 172.9375 6.675781 174.546875 5.210938 C 176.082031 3.675781 177.765625 2.210938 179.449219 0.820312 C 174.109375 2.945312 169.058594 5.503906 164.234375 8.136719 Z M 169.9375 9.671875 " fill-opacity="1" fill-rule="nonzero"/></g><path fill="#63b32e" d="M 195.027344 50.855469 C 190.347656 47.859375 188.007812 43.90625 188.8125 39.738281 C 195.320312 38.421875 202.710938 39.882812 207.464844 43.25 C 212.21875 46.90625 213.390625 51.296875 211.855469 55.246094 C 205.929688 55.171875 199.785156 54.003906 195.027344 50.855469 Z M 195.027344 50.855469 " fill-opacity="1" fill-rule="nonzero"/><path fill="#63b32e" d="M 192.980469 10.476562 C 186.691406 13.84375 185.007812 18.453125 186.691406 22.328125 C 194.296875 22.402344 202.125 21.523438 208.195312 18.742188 C 214.269531 16.183594 217.265625 12.160156 216.242188 8.0625 C 208.195312 6.234375 199.125 7.332031 192.980469 10.476562 Z M 192.980469 10.476562 " fill-opacity="1" fill-rule="nonzero"/><path fill="#63b32e" d="M 207.097656 54.148438 C 208.707031 55.101562 210.316406 55.976562 211.925781 56.929688 L 216.460938 60.074219 C 214.851562 57.367188 213.097656 54.515625 211.121094 51.882812 Z M 207.097656 54.148438 " fill-opacity="1" fill-rule="nonzero"/><path fill="#63b32e" d="M 215.511719 11.210938 C 218.875 9.308594 222.386719 7.550781 226.046875 5.796875 L 218.21875 6.675781 C 215.65625 6.96875 213.097656 7.625 210.535156 8.0625 Z M 215.511719 11.210938 " fill-opacity="1" fill-rule="nonzero"/><path fill="#63b32e" d="M 228.605469 53.5625 C 225.09375 49.613281 224.144531 45.152344 226.046875 41.785156 C 229.117188 42.226562 232.261719 43.175781 235.117188 44.492188 C 237.894531 46.03125 240.234375 47.929688 241.992188 50.050781 C 243.746094 52.175781 244.550781 54.441406 244.625 56.488281 C 244.699219 58.539062 244.039062 60.367188 242.871094 61.902344 C 240.164062 60.953125 237.457031 60.074219 235.042969 58.613281 C 233.800781 57.878906 232.703125 57.074219 231.605469 56.199219 C 230.507812 55.464844 229.484375 54.515625 228.605469 53.5625 Z M 228.605469 53.5625 " fill-opacity="1" fill-rule="nonzero"/><path fill="#63b32e" d="M 239.578125 15.304688 C 233.214844 16.621094 230.359375 20.0625 230.800781 24.085938 C 234.089844 25.328125 237.601562 26.132812 241.039062 26.5 C 244.480469 27.011719 247.769531 27.15625 250.917969 26.71875 C 254.0625 26.207031 256.476562 25.402344 258.160156 24.15625 C 259.839844 22.914062 260.792969 21.15625 260.9375 19.183594 C 257.644531 17.207031 253.769531 16.109375 250.113281 15.453125 C 248.28125 15.085938 246.453125 14.867188 244.699219 14.867188 C 242.871094 14.792969 241.1875 14.941406 239.578125 15.304688 Z M 239.578125 15.304688 " fill-opacity="1" fill-rule="nonzero"/><path fill="#63b32e" d="M 238.847656 59.5625 L 242.578125 63.511719 C 243.820312 64.828125 244.992188 66 246.089844 67.460938 L 245.503906 65.195312 L 244.84375 63.074219 L 243.382812 58.757812 Z M 238.847656 59.5625 " fill-opacity="1" fill-rule="nonzero"/><path fill="#63b32e" d="M 259.183594 21.597656 C 262.621094 20.71875 266.277344 19.695312 269.863281 19.109375 C 267.523438 18.597656 265.035156 18.304688 262.621094 18.011719 L 255.453125 17.207031 Z M 259.183594 21.597656 " fill-opacity="1" fill-rule="nonzero"/><path fill="#63b32e" d="M 262.695312 65.414062 C 262.179688 64.242188 261.742188 63.148438 261.523438 62.050781 C 261.304688 61.023438 261.15625 60 261.230469 59.050781 C 261.375 57.148438 262.109375 55.464844 263.425781 54.222656 C 264.082031 54.515625 264.816406 54.808594 265.472656 55.101562 C 266.132812 55.464844 266.71875 55.90625 267.375 56.269531 C 268.617188 57.074219 269.789062 58.027344 270.886719 59.050781 C 271.984375 60.074219 272.933594 61.097656 273.8125 62.195312 C 274.617188 63.367188 275.277344 64.535156 275.789062 65.78125 C 277.761719 70.679688 276.664062 74.558594 273.738281 76.753906 C 271.398438 75.4375 269.203125 73.679688 267.375 71.707031 C 265.398438 69.804688 263.789062 67.753906 262.695312 65.414062 Z M 262.695312 65.414062 " fill-opacity="1" fill-rule="nonzero"/><path fill="#63b32e" d="M 280.46875 36.226562 C 279.007812 36.082031 277.691406 36.152344 276.519531 36.375 C 275.347656 36.59375 274.324219 37.03125 273.445312 37.542969 C 271.765625 38.566406 270.667969 40.105469 270.375 41.933594 C 271.03125 42.371094 271.765625 42.8125 272.421875 43.25 C 273.082031 43.6875 273.8125 44.128906 274.472656 44.566406 C 275.859375 45.371094 277.324219 46.101562 278.785156 46.761719 C 280.25 47.417969 281.785156 47.929688 283.25 48.296875 C 284.710938 48.808594 286.175781 49.101562 287.566406 49.320312 C 293.269531 50.125 297.222656 48.445312 298.390625 44.859375 C 295.757812 42.519531 292.832031 40.46875 289.757812 38.859375 C 286.6875 37.398438 283.394531 36.519531 280.46875 36.226562 Z M 280.46875 36.226562 " fill-opacity="1" fill-rule="nonzero"/><path fill="#63b32e" d="M 270.375 73.167969 C 272.277344 76.019531 273.8125 79.167969 275.347656 82.164062 C 275.347656 79.3125 275.203125 76.460938 275.054688 73.460938 C 273.519531 73.316406 271.910156 73.242188 270.375 73.167969 Z M 270.375 73.167969 " fill-opacity="1" fill-rule="nonzero"/><path fill="#63b32e" d="M 296.34375 46.90625 C 299.5625 46.90625 302.925781 46.90625 306.292969 46.980469 C 302.121094 45.152344 298.171875 43.25 293.855469 41.785156 C 294.660156 43.542969 295.539062 45.152344 296.34375 46.90625 Z M 296.34375 46.90625 " fill-opacity="1" fill-rule="nonzero"/><path fill="#63b32e" d="M 291.878906 87.507812 C 290.855469 82.96875 292.171875 79.238281 295.171875 77.628906 C 296.269531 78.507812 297.292969 79.460938 298.246094 80.484375 C 299.195312 81.507812 300.074219 82.53125 300.804688 83.773438 C 302.195312 86.117188 303.21875 88.601562 303.65625 91.015625 C 304.097656 93.359375 303.804688 95.480469 303 97.089844 C 302.195312 98.699219 300.953125 99.867188 299.414062 100.453125 C 297.734375 98.550781 295.902344 96.648438 294.660156 94.382812 C 293.269531 92.261719 292.464844 89.773438 291.878906 87.507812 Z M 291.878906 87.507812 " fill-opacity="1" fill-rule="nonzero"/><path fill="#63b32e" d="M 314.921875 65.414062 C 309.65625 63.730469 306 65.046875 304.460938 68.121094 C 305.414062 69.292969 306.4375 70.386719 307.535156 71.414062 C 308.632812 72.4375 309.804688 73.386719 310.898438 74.339844 C 313.167969 76.242188 315.65625 77.703125 318.140625 78.65625 C 320.703125 79.605469 322.824219 79.972656 324.652344 79.679688 C 326.480469 79.386719 327.871094 78.507812 328.820312 77.046875 C 327.210938 74.265625 324.796875 71.925781 322.457031 69.875 C 320.117188 67.902344 317.628906 66.144531 314.921875 65.414062 Z M 314.921875 65.414062 " fill-opacity="1" fill-rule="nonzero"/><path fill="#63b32e" d="M 296.78125 95.039062 L 299.636719 104.550781 C 300.21875 101.988281 300.730469 99.355469 301.242188 96.722656 Z M 296.78125 95.039062 " fill-opacity="1" fill-rule="nonzero"/><path fill="#63b32e" d="M 325.601562 78.726562 C 328.53125 79.3125 331.527344 79.898438 334.527344 80.554688 C 331.164062 77.996094 327.871094 75.507812 324.578125 73.167969 Z M 325.601562 78.726562 " fill-opacity="1" fill-rule="nonzero"/><path fill="#63b32e" d="M 315.144531 116.691406 C 315.214844 115.597656 315.363281 114.570312 315.582031 113.621094 C 315.800781 112.742188 316.167969 111.9375 316.53125 111.207031 C 317.410156 109.816406 318.652344 108.867188 320.191406 108.5 C 320.628906 109.011719 320.996094 109.523438 321.359375 110.035156 C 321.726562 110.546875 322.019531 111.132812 322.3125 111.71875 C 322.898438 112.890625 323.410156 114.058594 323.847656 115.230469 C 324.652344 117.644531 325.164062 120.058594 325.019531 122.324219 C 324.578125 126.933594 322.3125 129.566406 319.167969 130.078125 C 316.824219 125.835938 314.921875 121.15625 315.144531 116.691406 Z M 315.144531 116.691406 " fill-opacity="1" fill-rule="nonzero"/><path fill="#63b32e" d="M 340.820312 101.625 C 339.792969 100.964844 338.769531 100.453125 337.820312 100.160156 C 336.796875 99.867188 335.917969 99.796875 335.039062 99.796875 C 333.355469 99.867188 331.96875 100.601562 330.945312 101.769531 C 331.234375 102.355469 331.601562 103.015625 331.96875 103.597656 C 332.261719 104.183594 332.625 104.84375 332.992188 105.429688 C 333.722656 106.597656 334.453125 107.769531 335.332031 108.792969 C 337.015625 110.914062 338.988281 112.742188 341.039062 114.058594 C 344.914062 116.839844 348.574219 116.984375 350.839844 114.71875 C 349.011719 109.230469 344.914062 104.332031 340.820312 101.625 Z M 340.820312 101.625 " fill-opacity="1" fill-rule="nonzero"/><path fill="#63b32e" d="M 318.507812 122.324219 L 319.53125 137.394531 C 320.554688 133.882812 321.578125 130.226562 322.605469 126.570312 Z M 318.507812 122.324219 " fill-opacity="1" fill-rule="nonzero"/><g clip-path="url(#0f3bb14158)"><path fill="#63b32e" d="M 345.9375 115.15625 C 349.523438 116.109375 353.179688 117.132812 356.839844 118.230469 L 346.230469 109.597656 Z M 345.9375 115.15625 " fill-opacity="1" fill-rule="nonzero"/></g><g clip-path="url(#f75c3d0be8)"><path fill="#63b32e" d="M 52.75 171.335938 C 52.75 251.289062 117.5625 316.175781 197.589844 316.175781 C 212.730469 316.175781 227.363281 313.835938 241.113281 309.519531 C 230.140625 310.398438 219.023438 310.761719 207.832031 310.761719 C 126.78125 310.761719 63.136719 248.585938 63.136719 171.777344 C 63.136719 94.96875 126.414062 31.179688 207.390625 34.765625 C 255.378906 36.886719 296.125 62.707031 328.382812 109.230469 C 305.121094 60.367188 255.304688 26.570312 197.515625 26.570312 C 117.5625 26.570312 52.75 91.382812 52.75 171.335938 Z M 52.75 171.335938 " fill-opacity="1" fill-rule="nonzero"/></g><path fill="#63b32e" d="M 60.429688 17.136719 C 73.453125 27.082031 79.230469 43.46875 80.621094 59.269531 C 80.695312 61.023438 80.765625 65.488281 80.839844 67.242188 C 80.695312 68.925781 80.402344 73.386719 80.328125 75.144531 C 79.960938 78.65625 79.304688 82.164062 78.792969 85.605469 L 76.378906 95.917969 L 83.472656 97.527344 C 84.570312 90.796875 85.667969 82.164062 85.742188 75.4375 C 85.667969 72.289062 85.742188 67.390625 85.304688 64.316406 C 83.621094 46.320312 76.011719 27.230469 60.429688 17.136719 Z M 60.429688 17.136719 " fill-opacity="1" fill-rule="nonzero"/><g clip-path="url(#d3274ed99d)"><path fill="#63b32e" d="M 0.15625 47.273438 C 29.121094 57.953125 50.117188 85.3125 54.578125 115.597656 C 56.1875 125.472656 56.480469 135.566406 55.675781 145.585938 L 64.746094 145.953125 C 65.550781 101.84375 44.046875 60.804688 0.15625 47.273438 Z M 0.15625 47.273438 " fill-opacity="1" fill-rule="nonzero"/></g><path fill="#63b32e" d="M 144.992188 95.039062 C 101.542969 98.550781 64.746094 125.542969 54.578125 168.921875 C 54.578125 168.921875 61.675781 170.460938 61.675781 170.460938 C 63.503906 160.730469 66.648438 151.21875 71.402344 142.515625 C 85.960938 115.667969 115.148438 99.210938 144.992188 95.039062 Z M 144.992188 95.039062 " fill-opacity="1" fill-rule="nonzero"/><path fill="#63b32e" d="M 200.589844 90.285156 C 239.503906 90.285156 271.105469 121.960938 271.105469 160.804688 C 271.105469 165.410156 270.667969 169.945312 269.789062 174.335938 C 264.816406 173.164062 259.695312 172.066406 254.648438 171.042969 C 255.304688 167.679688 255.597656 164.242188 255.597656 160.804688 C 255.597656 130.445312 230.871094 105.71875 200.515625 105.71875 C 170.15625 105.71875 145.433594 130.445312 145.433594 160.804688 C 145.433594 162.558594 145.507812 164.3125 145.726562 166.070312 C 140.605469 166.582031 135.484375 167.167969 130.363281 167.898438 C 130.144531 165.558594 129.996094 163.21875 129.996094 160.804688 C 130.070312 121.960938 161.671875 90.285156 200.589844 90.285156 Z M 200.589844 90.285156 " fill-opacity="1" fill-rule="nonzero"/><path fill="#63b32e" d="M 200.589844 113.914062 C 226.484375 113.914062 247.476562 134.90625 247.476562 160.804688 C 247.476562 163.800781 247.1875 166.800781 246.671875 169.65625 C 241.625 168.777344 236.503906 168.046875 231.386719 167.386719 C 231.824219 165.265625 232.042969 163.070312 232.042969 160.875 C 232.042969 143.539062 217.925781 129.421875 200.589844 129.421875 C 183.25 129.421875 169.207031 143.539062 169.207031 160.875 C 169.207031 162.121094 169.28125 163.363281 169.425781 164.535156 C 164.234375 164.679688 159.113281 164.972656 153.992188 165.410156 C 153.84375 163.949219 153.773438 162.414062 153.773438 160.875 C 153.699219 134.980469 174.765625 113.914062 200.589844 113.914062 Z M 200.589844 113.914062 " fill-opacity="1" fill-rule="nonzero"/><path fill="#63b32e" d="M 177.328125 160.804688 C 177.328125 161.972656 177.398438 163.144531 177.621094 164.242188 C 179.449219 164.242188 181.351562 164.167969 183.179688 164.167969 C 196.566406 164.167969 209.878906 164.898438 223.117188 166.289062 C 223.558594 164.535156 223.777344 162.632812 223.777344 160.730469 C 223.777344 147.855469 213.390625 137.46875 200.515625 137.46875 C 187.789062 137.542969 177.328125 148 177.328125 160.804688 Z M 177.328125 160.804688 " fill-opacity="1" fill-rule="nonzero"/></g></g></g><g clip-path="url(#200162d6d3)"><g clip-path="url(#1b822e5f85)"><g clip-path="url(#cdd3daba12)"><g transform="matrix(1, 0, 0, 1, 115, 109)"><g clip-path="url(#af4a558af8)"><g clip-path="url(#4f78ea4198)"><g clip-path="url(#c33c5632f5)"><g clip-path="url(#f9a4a2fc7a)"><path fill="#ffffff" d="M 4.90625 -3.5625 L 193.292969 5.15625 L 188.460938 109.542969 L 0.078125 100.824219 Z M 4.90625 -3.5625 " fill-opacity="1" fill-rule="nonzero"/></g></g></g></g></g></g></g></g><g clip-path="url(#8e12fbf4a8)"><g clip-path="url(#19da7c3e14)"><g transform="matrix(1, 0, 0, 1, 177, 169)"><g clip-path="url(#472c961e7b)"><g clip-path="url(#b6b14ae44b)"><g clip-path="url(#8c830ec245)"><path fill="#ffffff" d="M 0.945312 0.167969 L 34.671875 0.167969 L 34.671875 43.246094 L 0.945312 43.246094 Z M 0.945312 0.167969 " fill-opacity="1" fill-rule="nonzero"/></g></g></g></g></g></g><g clip-path="url(#174ed59075)"><g clip-path="url(#7ac547f2b0)"><g clip-path="url(#b1a65de788)"><g clip-path="url(#92b4f9049a)"><g clip-path="url(#95d01a48bc)"><path fill="#ffcc00" d="M 243.808594 211.109375 C 243.714844 212.78125 243.53125 214.425781 243.257812 216.039062 L 155.871094 211.128906 C 155.777344 209.496094 155.78125 207.84375 155.875 206.167969 C 157.25 181.691406 178.050781 162.949219 202.332031 164.3125 C 226.617188 165.675781 245.183594 186.628906 243.808594 211.109375 " fill-opacity="1" fill-rule="nonzero"/></g></g></g></g></g><g clip-path="url(#8f5412fb86)"><g clip-path="url(#67889bb7d7)"><g clip-path="url(#b7d33c0079)"><g clip-path="url(#d7eeefd1dc)"><path fill="#fa881e" d="M 201.90625 136.8125 C 202.074219 135.25 202.234375 133.683594 202.394531 132.152344 C 202.785156 128.402344 203.152344 124.859375 203.511719 121.996094 C 203.976562 117.953125 204.335938 115.257812 204.335938 115.257812 L 204.40625 114.722656 L 205.824219 114.800781 L 205.835938 115.34375 C 205.835938 115.34375 205.890625 118.058594 205.902344 122.125 C 205.9375 125.015625 205.90625 128.574219 205.875 132.347656 C 205.859375 133.886719 205.847656 135.460938 205.835938 137.03125 L 205.847656 141.066406 C 205.875 142.613281 205.859375 143.867188 205.808594 145.027344 C 205.71875 146.515625 205.613281 147.6875 205.472656 148.703125 C 205.335938 149.847656 205.175781 150.953125 204.996094 151.984375 C 204.332031 156.015625 203.414062 158.65625 203.375 158.769531 L 203.230469 159.183594 L 202.015625 159.113281 L 201.917969 158.6875 C 201.894531 158.570312 201.277344 155.84375 201.070312 151.769531 C 201.003906 150.710938 200.96875 149.59375 200.964844 148.460938 C 200.9375 147.414062 200.960938 146.238281 201.039062 144.75 C 201.117188 143.601562 201.246094 142.351562 201.445312 140.828125 L 201.90625 136.8125 " fill-opacity="1" fill-rule="nonzero"/></g></g></g></g><g clip-path="url(#84dc4b161e)"><g clip-path="url(#914f278fb4)"><g clip-path="url(#20b4380773)"><g clip-path="url(#6f5b88b560)"><path fill="#fa881e" d="M 216.179688 150.746094 C 216.421875 149.734375 216.746094 148.605469 217.207031 147.183594 C 217.578125 146.089844 218.023438 144.914062 218.601562 143.503906 L 220.078125 139.746094 C 220.640625 138.28125 221.199219 136.816406 221.742188 135.378906 C 223.082031 131.855469 224.347656 128.523438 225.433594 125.847656 C 226.921875 122.0625 227.960938 119.554688 227.960938 119.554688 L 228.164062 119.054688 L 229.515625 119.5 L 229.386719 120.023438 C 229.386719 120.023438 228.742188 122.667969 227.707031 126.59375 C 227 129.402344 226.054688 132.832031 225.058594 136.464844 C 224.648438 137.949219 224.230469 139.46875 223.820312 140.980469 L 222.792969 144.882812 C 222.421875 146.386719 222.085938 147.59375 221.738281 148.699219 C 221.273438 150.109375 220.871094 151.210938 220.46875 152.164062 C 220.046875 153.234375 219.605469 154.257812 219.167969 155.210938 C 217.492188 158.929688 215.925781 161.246094 215.863281 161.339844 L 215.613281 161.703125 L 214.460938 161.320312 L 214.476562 160.882812 C 214.480469 160.765625 214.585938 157.96875 215.433594 153.976562 C 215.636719 152.957031 215.886719 151.867188 216.179688 150.746094 " fill-opacity="1" fill-rule="nonzero"/></g></g></g></g><g clip-path="url(#90333c97b7)"><g clip-path="url(#1f3e132905)"><g clip-path="url(#505589c395)"><g clip-path="url(#588e7686cf)"><path fill="#fa881e" d="M 247.617188 136.605469 C 246.214844 139.132812 244.421875 142.203125 242.519531 145.457031 C 241.746094 146.78125 240.953125 148.136719 240.167969 149.488281 L 238.179688 152.992188 C 237.433594 154.339844 236.800781 155.421875 236.179688 156.402344 C 235.371094 157.640625 234.695312 158.601562 234.066406 159.417969 C 233.378906 160.339844 232.695312 161.214844 232.023438 162.023438 C 229.453125 165.179688 227.347656 167.007812 227.257812 167.082031 L 226.929688 167.371094 L 225.910156 166.695312 L 226.039062 166.277344 C 226.070312 166.164062 226.894531 163.492188 228.734375 159.855469 C 229.199219 158.914062 229.722656 157.929688 230.285156 156.929688 C 230.777344 156.019531 231.382812 155.011719 232.191406 153.757812 C 232.832031 152.796875 233.558594 151.78125 234.484375 150.566406 L 236.875 147.320312 C 237.789062 146.054688 238.703125 144.785156 239.597656 143.546875 C 241.796875 140.484375 243.878906 137.59375 245.613281 135.289062 C 248.023438 132.019531 249.667969 129.867188 249.667969 129.867188 L 249.996094 129.4375 L 251.183594 130.222656 L 250.925781 130.695312 C 250.925781 130.695312 249.625 133.078125 247.617188 136.605469 " fill-opacity="1" fill-rule="nonzero"/></g></g></g></g><g clip-path="url(#a21aca637e)"><g clip-path="url(#9462a590a7)"><g clip-path="url(#7775dd32b5)"><g clip-path="url(#91d0837ae6)"><path fill="#fa881e" d="M 264.273438 151.46875 C 262.273438 153.542969 259.757812 156.042969 257.089844 158.683594 C 256 159.765625 254.886719 160.871094 253.773438 161.976562 L 250.953125 164.839844 C 249.914062 165.925781 248.996094 166.832031 248.148438 167.613281 C 247.039062 168.605469 246.140625 169.359375 245.332031 169.976562 C 244.429688 170.691406 243.539062 171.359375 242.691406 171.960938 C 239.394531 174.339844 236.894531 175.554688 236.789062 175.605469 L 236.398438 175.792969 L 235.589844 174.882812 L 235.820312 174.507812 C 235.882812 174.410156 237.359375 172.042969 240.070312 169.007812 C 240.757812 168.222656 241.515625 167.40625 242.316406 166.589844 C 243.023438 165.835938 243.867188 165.023438 244.972656 164.019531 C 245.824219 163.269531 246.792969 162.476562 248.011719 161.53125 L 251.148438 159.019531 C 252.371094 158.03125 253.582031 157.035156 254.769531 156.0625 C 257.675781 153.6875 260.417969 151.445312 262.675781 149.679688 C 265.84375 147.148438 267.988281 145.496094 267.988281 145.496094 L 268.414062 145.167969 L 269.359375 146.234375 L 268.988281 146.625 C 268.988281 146.625 267.121094 148.585938 264.273438 151.46875 " fill-opacity="1" fill-rule="nonzero"/></g></g></g></g><g clip-path="url(#1daabe09e4)"><g clip-path="url(#210b5f152e)"><g clip-path="url(#3d34cd72b5)"><g clip-path="url(#fb96f09aef)"><path fill="#fa881e" d="M 276.546875 170.179688 C 274.074219 171.664062 270.996094 173.425781 267.734375 175.289062 C 266.410156 176.042969 265.058594 176.8125 263.707031 177.589844 L 260.246094 179.621094 C 258.929688 180.417969 257.84375 181.035156 256.828125 181.570312 C 255.519531 182.230469 254.457031 182.726562 253.5 183.117188 C 252.4375 183.574219 251.40625 183.988281 250.441406 184.34375 C 246.648438 185.785156 243.925781 186.304688 243.808594 186.328125 L 243.382812 186.410156 L 242.832031 185.3125 L 243.152344 185.015625 C 243.234375 184.9375 245.269531 183.03125 248.667969 180.808594 C 249.527344 180.234375 250.46875 179.640625 251.457031 179.058594 C 252.34375 178.511719 253.367188 177.945312 254.683594 177.265625 C 255.703125 176.761719 256.839844 176.25 258.253906 175.65625 L 261.933594 174.046875 C 263.367188 173.40625 264.804688 172.761719 266.207031 172.128906 C 269.613281 170.597656 272.828125 169.144531 275.460938 168.03125 C 279.167969 166.410156 281.664062 165.375 281.664062 165.375 L 282.160156 165.171875 L 282.796875 166.449219 L 282.339844 166.726562 C 282.339844 166.726562 280.035156 168.136719 276.546875 170.179688 " fill-opacity="1" fill-rule="nonzero"/></g></g></g></g><g clip-path="url(#f776ccb390)"><g clip-path="url(#7554de1b1e)"><g clip-path="url(#2609af0637)"><g clip-path="url(#070b0e2eae)"><path fill="#fa881e" d="M 283.589844 191.457031 C 280.816406 192.25 277.378906 193.148438 273.738281 194.101562 C 272.277344 194.484375 270.785156 194.871094 269.292969 195.265625 L 265.429688 196.328125 C 263.988281 196.742188 262.746094 197.066406 261.625 197.316406 C 260.1875 197.613281 259.039062 197.816406 258.015625 197.945312 C 256.886719 198.109375 255.785156 198.242188 254.75 198.332031 C 251.339844 198.671875 248.835938 198.574219 248.070312 198.53125 C 247.933594 198.523438 247.851562 198.515625 247.832031 198.515625 L 247.398438 198.484375 L 247.152344 197.28125 L 247.535156 197.078125 C 247.636719 197.023438 250.09375 195.714844 253.941406 194.453125 C 254.933594 194.117188 255.996094 193.792969 257.082031 193.492188 C 258.074219 193.191406 259.210938 192.910156 260.660156 192.601562 C 261.777344 192.378906 263.007812 192.179688 264.523438 191.976562 L 268.484375 191.382812 C 270.035156 191.140625 271.582031 190.890625 273.097656 190.648438 C 276.785156 190.050781 280.265625 189.492188 283.097656 189.097656 C 287.09375 188.503906 289.765625 188.152344 289.765625 188.152344 L 290.296875 188.082031 L 290.585938 189.484375 L 290.070312 189.636719 C 290.070312 189.636719 287.484375 190.394531 283.589844 191.457031 " fill-opacity="1" fill-rule="nonzero"/></g></g></g></g><g clip-path="url(#7945f0a735)"><g clip-path="url(#2076bee708)"><g clip-path="url(#af3fe7c8c2)"><g clip-path="url(#0246af70a4)"><g clip-path="url(#9e8f7b93ef)"><path fill="#fa881e" d="M 274.855469 213.839844 C 273.308594 213.824219 271.726562 213.8125 270.144531 213.804688 L 266.144531 213.820312 C 264.625 213.84375 263.375 213.835938 262.21875 213.785156 C 260.75 213.699219 259.585938 213.589844 258.570312 213.449219 C 257.429688 213.3125 256.332031 213.148438 255.316406 212.96875 C 251.320312 212.304688 248.699219 211.382812 248.589844 211.34375 L 248.179688 211.199219 L 248.246094 209.972656 L 248.671875 209.875 C 248.785156 209.847656 251.492188 209.226562 255.53125 209.015625 C 256.589844 208.945312 257.695312 208.910156 258.8125 208.902344 C 259.851562 208.875 261.019531 208.898438 262.496094 208.976562 C 263.625 209.054688 264.863281 209.179688 266.386719 209.378906 L 270.367188 209.84375 C 271.933594 210.011719 273.503906 210.175781 275.039062 210.335938 C 278.738281 210.722656 282.234375 211.085938 285.0625 211.445312 C 289.074219 211.910156 291.746094 212.273438 291.746094 212.273438 L 292.277344 212.34375 L 292.195312 213.773438 L 291.660156 213.785156 C 291.660156 213.785156 288.964844 213.84375 284.929688 213.855469 C 282.078125 213.898438 278.570312 213.871094 274.855469 213.839844 " fill-opacity="1" fill-rule="nonzero"/></g></g></g></g></g><g clip-path="url(#321a74986a)"><g clip-path="url(#e4ce2c9fe9)"><g clip-path="url(#9ab2962717)"><g clip-path="url(#b5afc4b40e)"><path fill="#fa881e" d="M 108.117188 201.960938 C 108.117188 201.960938 110.808594 201.902344 114.84375 201.886719 C 117.699219 201.847656 121.214844 201.875 124.933594 201.90625 C 126.476562 201.917969 128.054688 201.929688 129.628906 201.941406 L 133.632812 201.921875 C 135.175781 201.894531 136.417969 201.910156 137.558594 201.957031 C 139.023438 202.046875 140.1875 202.152344 141.207031 202.296875 C 142.324219 202.429688 143.421875 202.589844 144.460938 202.773438 C 148.457031 203.4375 151.078125 204.363281 151.1875 204.398438 L 151.597656 204.546875 L 151.527344 205.769531 L 151.101562 205.871094 C 150.988281 205.894531 148.285156 206.515625 144.242188 206.730469 C 143.207031 206.796875 142.101562 206.835938 140.960938 206.839844 C 139.921875 206.871094 138.753906 206.847656 137.277344 206.765625 C 136.128906 206.691406 134.890625 206.558594 133.390625 206.363281 L 129.410156 205.898438 C 127.835938 205.730469 126.261719 205.566406 124.722656 205.40625 C 121.027344 205.019531 117.539062 204.65625 114.714844 204.296875 C 110.703125 203.832031 108.03125 203.472656 108.03125 203.472656 L 107.5 203.402344 L 107.578125 201.972656 L 108.117188 201.960938 " fill-opacity="1" fill-rule="nonzero"/></g></g></g></g><g clip-path="url(#6c73bb2c18)"><g clip-path="url(#2b67ed15dc)"><g clip-path="url(#000cb09cfc)"><g clip-path="url(#37a86e6986)"><path fill="#fa881e" d="M 133.5625 183.804688 L 137.433594 184.839844 C 138.921875 185.210938 140.121094 185.546875 141.214844 185.894531 C 142.613281 186.363281 143.707031 186.769531 144.648438 187.171875 C 145.707031 187.597656 146.726562 188.039062 147.671875 188.484375 C 151.359375 190.167969 153.652344 191.742188 153.75 191.808594 L 154.105469 192.054688 L 153.726562 193.222656 L 153.292969 193.207031 C 153.273438 193.207031 153.191406 193.203125 153.050781 193.195312 C 152.289062 193.152344 149.789062 192.96875 146.445312 192.25 C 145.421875 192.042969 144.34375 191.789062 143.246094 191.5 C 142.234375 191.253906 141.113281 190.925781 139.710938 190.46875 C 138.632812 190.09375 137.4375 189.636719 136.058594 189.0625 L 132.335938 187.578125 C 130.875 187.011719 129.414062 186.445312 127.984375 185.894531 C 124.492188 184.550781 121.199219 183.28125 118.554688 182.191406 C 114.800781 180.695312 112.3125 179.652344 112.3125 179.652344 L 111.816406 179.441406 L 112.261719 178.085938 L 112.78125 178.210938 C 112.78125 178.210938 115.398438 178.859375 119.296875 179.898438 C 122.074219 180.605469 125.46875 181.554688 129.066406 182.558594 C 130.542969 182.96875 132.054688 183.390625 133.5625 183.804688 " fill-opacity="1" fill-rule="nonzero"/></g></g></g></g><g clip-path="url(#45eab3570d)"><g clip-path="url(#97284c934d)"><g clip-path="url(#ec14c0d977)"><g clip-path="url(#a21ef22c5c)"><path fill="#fa881e" d="M 142.015625 167.3125 L 145.492188 169.320312 C 146.835938 170.074219 147.90625 170.707031 148.871094 171.328125 C 150.097656 172.144531 151.050781 172.820312 151.859375 173.457031 C 152.78125 174.15625 153.652344 174.851562 154.4375 175.515625 C 157.570312 178.105469 159.378906 180.226562 159.453125 180.3125 L 159.738281 180.648438 L 159.070312 181.675781 L 158.65625 181.542969 C 158.542969 181.511719 155.894531 180.6875 152.289062 178.832031 C 151.363281 178.371094 150.386719 177.84375 149.394531 177.273438 C 148.476562 176.773438 147.476562 176.164062 146.242188 175.351562 C 145.296875 174.714844 144.289062 173.980469 143.078125 173.042969 L 139.863281 170.636719 C 138.605469 169.714844 137.347656 168.796875 136.117188 167.894531 C 133.082031 165.679688 130.21875 163.585938 127.9375 161.839844 C 124.695312 159.414062 122.558594 157.753906 122.558594 157.753906 L 122.136719 157.425781 L 122.914062 156.226562 L 123.382812 156.488281 C 123.382812 156.488281 125.746094 157.792969 129.242188 159.816406 C 131.738281 161.222656 134.773438 163.023438 137.988281 164.929688 C 139.3125 165.714844 140.664062 166.515625 142.015625 167.3125 " fill-opacity="1" fill-rule="nonzero"/></g></g></g></g><g clip-path="url(#b9e4275083)"><g clip-path="url(#d302697f10)"><g clip-path="url(#0a17e07f6b)"><g clip-path="url(#07af6770e5)"><path fill="#fa881e" d="M 159.996094 159.246094 L 160 159.25 C 160.980469 160.367188 161.726562 161.273438 162.34375 162.089844 C 163.050781 163 163.710938 163.894531 164.304688 164.75 C 166.664062 168.070312 167.867188 170.589844 167.917969 170.695312 L 168.105469 171.089844 L 167.199219 171.910156 L 166.828125 171.675781 C 166.730469 171.613281 164.382812 170.125 161.378906 167.394531 C 160.601562 166.703125 159.789062 165.941406 158.980469 165.136719 C 158.238281 164.425781 157.425781 163.574219 156.429688 162.457031 C 155.679688 161.589844 154.875 160.585938 153.96875 159.398438 L 151.480469 156.234375 C 150.5 155.007812 149.515625 153.785156 148.554688 152.585938 C 146.199219 149.664062 143.976562 146.902344 142.222656 144.621094 C 139.714844 141.433594 138.078125 139.273438 138.078125 139.273438 L 137.757812 138.84375 L 138.8125 137.886719 L 139.199219 138.261719 C 139.199219 138.261719 141.144531 140.144531 144.003906 143.007812 C 146.058594 145.023438 148.53125 147.558594 151.148438 150.246094 C 152.222656 151.34375 153.316406 152.46875 154.414062 153.585938 L 157.25 156.429688 C 158.359375 157.507812 159.230469 158.402344 159.996094 159.246094 " fill-opacity="1" fill-rule="nonzero"/></g></g></g></g><g clip-path="url(#1f841566cc)"><g clip-path="url(#85a64de59a)"><g clip-path="url(#72ffd91fa6)"><g clip-path="url(#fef0a80ca4)"><path fill="#fa881e" d="M 178.636719 164.042969 L 177.550781 164.597656 L 177.253906 164.277344 C 177.175781 164.1875 175.292969 162.136719 173.085938 158.714844 C 172.511719 157.835938 171.925781 156.890625 171.355469 155.90625 C 170.8125 155.011719 170.25 153.980469 169.582031 152.652344 C 169.078125 151.617188 168.570312 150.472656 167.984375 149.058594 L 166.398438 145.347656 C 165.769531 143.914062 165.132812 142.480469 164.511719 141.074219 C 162.988281 137.628906 161.546875 134.375 160.4375 131.714844 C 158.835938 127.980469 157.8125 125.464844 157.8125 125.464844 L 157.609375 124.96875 L 158.875 124.320312 L 159.152344 124.78125 C 159.152344 124.78125 160.546875 127.105469 162.574219 130.621094 C 164.042969 133.109375 165.785156 136.214844 167.632812 139.503906 C 168.378906 140.835938 169.144531 142.199219 169.910156 143.554688 L 171.921875 147.042969 C 172.707031 148.363281 173.320312 149.453125 173.851562 150.488281 C 174.511719 151.820312 175 152.890625 175.382812 153.84375 C 175.832031 154.898438 176.242188 155.9375 176.597656 156.921875 C 178.019531 160.75 178.535156 163.496094 178.558594 163.609375 L 178.636719 164.042969 " fill-opacity="1" fill-rule="nonzero"/></g></g></g></g><g clip-path="url(#6b7c478ee9)"><g clip-path="url(#7032e95c2d)"><g clip-path="url(#2150e1be4d)"><g clip-path="url(#3428169ab4)"><path fill="#fa881e" d="M 190.621094 159.980469 L 189.429688 160.230469 L 189.222656 159.84375 C 189.167969 159.742188 187.875 157.265625 186.628906 153.386719 C 186.296875 152.390625 185.976562 151.324219 185.675781 150.21875 C 185.378906 149.21875 185.101562 148.074219 184.796875 146.613281 C 184.578125 145.488281 184.378906 144.25 184.179688 142.722656 L 183.597656 138.726562 C 183.355469 137.171875 183.113281 135.617188 182.871094 134.097656 C 182.285156 130.375 181.730469 126.859375 181.34375 123.996094 C 180.753906 119.972656 180.410156 117.273438 180.410156 117.273438 L 180.34375 116.738281 L 181.730469 116.449219 L 181.882812 116.964844 C 181.882812 116.964844 182.628906 119.574219 183.683594 123.5 C 184.464844 126.285156 185.347656 129.734375 186.285156 133.386719 C 186.667969 134.875 187.054688 136.394531 187.449219 137.910156 L 188.496094 141.804688 C 188.914062 143.28125 189.226562 144.496094 189.476562 145.636719 C 189.769531 147.09375 189.96875 148.253906 190.09375 149.277344 C 190.257812 150.425781 190.386719 151.535156 190.476562 152.570312 C 190.867188 156.636719 190.660156 159.425781 190.652344 159.542969 L 190.621094 159.980469 " fill-opacity="1" fill-rule="nonzero"/></g></g></g></g></svg>